Coordinates
version=1
nRows=13
nColumns=27
inDegrees=yes

Units are S.I. units (second, meters, Newtons, ...)
If the header above contains a line with 'inDegrees', this indicates whether rotational values are in degrees (yes) or radians (no).

endheader
time	pelvis_rotation	pelvis_tilt	pelvis_list	pelvis_tx	pelvis_ty	pelvis_tz	hip_flexion_r	hip_adduction_r	hip_rotation_r	knee_angle_r	knee_rotation_r	knee_adduction_r	knee_angle_r_beta	ankle_angle_r	subtalar_angle_r	mtp_angle_r	hip_flexion_l	hip_adduction_l	hip_rotation_l	knee_angle_l	knee_rotation_l	knee_adduction_l	knee_angle_l_beta	ankle_angle_l	subtalar_angle_l	mtp_angle_l
      5.39500000	      4.67824926	    -34.92534122	      5.60431577	     -0.03579644	      0.44529232	     -1.16034467	    137.46370383	    -44.71428304	     20.63128730	    109.22271579	     -9.89958550	      9.87501547	      1.90629601	     18.23586240	     10.18568503	      0.00000000	    129.30945323	    -40.32535406	      8.55644065	    103.17630005	     -9.89431942	     -9.89314003	      1.80076615	     13.80163354	     25.71054856	      0.00000000
      5.40000000	      4.77831339	    -35.08882296	      5.36317935	     -0.03684469	      0.44715128	     -1.16045285	    137.16758848	    -45.03034472	     20.10317389	    108.93112655	     -9.89807245	      9.87330747	      1.90120682	     18.07697389	     10.18676888	      0.00000000	    129.39408504	    -39.92351623	      8.59997792	    102.93339587	     -9.89205964	     -9.89180097	      1.79652667	     13.64821104	     25.53903207	      0.00000000
      5.40500000	      4.71902889	    -35.25510535	      5.72315949	     -0.03803243	      0.44898871	     -1.16040163	    137.31067760	    -44.58051695	     20.17516778	    108.69740541	     -9.89618703	      9.87176292	      1.89712761	     17.88342067	     10.06395663	      0.00000000	    128.98275620	    -40.18067716	      7.94793672	    102.61472220	     -9.89050450	     -9.89064313	      1.79096476	     13.46183116	     25.39513915	      0.00000000
      5.41000000	      4.88334122	    -35.41507635	      5.58922249	     -0.03915080	      0.45095047	     -1.16050544	    137.10656291	    -44.86733634	     19.76948516	    108.40178129	     -9.89456496	      9.87030185	      1.89196800	     17.71447721	     10.05270419	      0.00000000	    128.94711093	    -39.76658256	      7.84814117	    102.33876803	     -9.88815963	     -9.88937192	      1.78614845	     13.34076497	     25.20161365	      0.00000000
      5.41500000	      4.76295448	    -35.59598768	      5.76922110	     -0.04036568	      0.45293234	     -1.16047649	    137.05797431	    -44.50312928	     19.59931857	    108.12715327	     -9.89244579	      9.86794814	      1.88717484	     17.51922845	      9.90115493	      0.00000000	    128.67349810	    -39.96056845	      7.38686530	    102.02338633	     -9.88635996	     -9.88810884	      1.78064401	     13.22090108	     25.06631534	      0.00000000
      5.42000000	      4.75853762	    -35.75019557	      5.79549557	     -0.04156410	      0.45498349	     -1.16049723	    136.89504026	    -44.43319928	     19.29714336	    107.82966461	     -9.89041728	      9.86585240	      1.88198268	     17.34986721	      9.83052756	      0.00000000	    128.48603020	    -39.88442666	      7.09052409	    101.71006328	     -9.88414753	     -9.88672598	      1.77517549	     13.06859878	     24.89707379	      0.00000000
      5.42500000	      4.92885152	    -35.93424307	      5.69600534	     -0.04265250	      0.45704379	     -1.16059525	    136.72673412	    -44.70659057	     18.91028872	    107.52733102	     -9.88840165	      9.86373885	      1.87670596	     17.15496661	      9.77861679	      0.00000000	    128.44986826	    -39.51209902	      6.93856983	    101.42310061	     -9.88141031	     -9.88498551	      1.77016704	     12.91437509	     24.69096663	      0.00000000
      5.43000000	      4.81977291	    -36.11341763	      5.87172809	     -0.04397321	      0.45916948	     -1.16052943	    136.65964741	    -44.35867249	     18.72283268	    107.22769763	     -9.88599395	      9.86121792	      1.87147637	     16.96329599	      9.67984088	      0.00000000	    128.14845858	    -39.66697725	      6.47501389	    101.06163823	     -9.87932792	     -9.88371916	      1.76385833	     12.74913717	     24.56960636	      0.00000000
      5.43500000	      4.51956023	    -36.15783558	      5.88454592	     -0.04553587	      0.46145811	     -1.16046679	    136.19621931	    -43.89513280	     18.38248673	    106.85204647	     -9.78137412	      9.73488406	      1.86492002	     16.78703768	      9.56535808	      0.00000000	    127.76727776	    -39.86947306	      6.27021535	    100.68397784	     -9.76840724	     -9.77867175	      1.75726692	     12.60557153	     24.42682967	      0.00000000
      5.44000000	      4.88135524	    -36.46423712	      5.89190514	     -0.04658394	      0.46359459	     -1.16057182	    136.30320447	    -44.30826868	     18.04914215	    106.56196866	     -9.88146868	      9.85701359	      1.85985721	     16.60568843	      9.51167887	      0.00000000	    127.80247287	    -39.36794021	      5.89870930	    100.37678367	     -9.87371815	     -9.88091813	      1.75190537	     12.43445432	     24.16661352	      0.00000000
      5.44500000	      4.91759255	    -36.63788985	      5.94446909	     -0.04787884	      0.46583303	     -1.16056865	    136.16342712	    -44.25258118	     17.75660456	    106.23384650	     -9.87902662	      9.85508832	      1.85413040	     16.40124226	      9.38284104	      0.00000000	    127.59507640	    -39.25418319	      5.55915363	    100.01776696	     -9.87094984	     -9.87939143	      1.74563934	     12.24520218	     23.97490118	      0.00000000
      5.45000000	      4.65546057	    -36.69035351	      5.87876378	     -0.04939844	      0.46818783	     -1.16049359	    135.65456884	    -43.91788794	     17.35300827	    105.84312924	     -9.76755750	      9.72170517	      1.84731110	     16.23182826	      9.35097046	      0.00000000	    127.28257852	    -39.36809483	      5.45537599	     99.62628384	     -9.75206257	     -9.77017864	      1.73880667	     12.06259066	     23.88013537	      0.00000000
      5.45500000	      4.97456477	    -36.98514355	      6.06778161	     -0.05053692	      0.47049423	     -1.16052087	    135.83902415	    -44.10706367	     17.15597113	    105.54181464	     -9.87364719	      9.85015316	      1.84205216	     16.02475989	      9.20616509	      0.00000000	    127.12593504	    -39.06200486	      4.84232594	     99.25087120	     -9.86448031	     -9.87600855	      1.73225449	     11.89002871	     23.68101713	      0.00000000
